# xmcd CD database file
#
# Track frame offsets:
#	200
#	18472
#	36587
#	55492
#
# Disc length: 991 seconds
#
# Revision: 1
# Processed by: cddbd v1.5.1PL0 Copyright (c) Steve Scherf et al.
# Submitted via: CDex 1.50beta9
#
DISCID=3403dd04
DTITLE=Zuri - Pain
DYEAR=1996
DGENRE=Unknown
TTITLE0=Pain I (Radio Edit)
TTITLE1=Pain I (Instrumental)
TTITLE2=Pain II (Featuring DMC)
TTITLE3=Pain II (Instrumental)
EXTD=YEAR: 1996
EXTT0=
EXTT1=
EXTT2=
EXTT3=
PLAYORDER=
